<?xml version="1.0" encoding="UTF-8" standalone="no"?>
<svg width="38px" height="38px" viewBox="0 0 38 38" version="1.1" xmlns="http://www.w3.org/2000/svg" xmlns:xlink="http://www.w3.org/1999/xlink" xmlns:sketch="http://www.bohemiancoding.com/sketch/ns">
    <!-- Generator: Sketch 3.3.2 (12043) - http://www.bohemiancoding.com/sketch -->
    <title>light/btn-github</title>
    <desc>Created with Sketch.</desc>
    <defs></defs>
    <g id="rTail---assets" stroke="none" stroke-width="1" fill="none" fill-rule="evenodd" sketch:type="MSPage">
        <g id="webapp-assets@2x" sketch:type="MSArtboardGroup" transform="translate(-1744.000000, -153.000000)" fill="#FFFFFF">
            <g id="light" sketch:type="MSLayerGroup" transform="translate(100.000000, 83.000000)">
                <g id="assets" transform="translate(40.000000, 70.000000)" sketch:type="MSShapeGroup">
                    <path d="M1642,19 C1642,29.45 1633.45,38 1623,38 C1612.55,38 1604,29.45 1604,19 C1604,8.55 1612.55,0 1623,0 C1633.45,0 1642,8.55 1642,19 L1642,19 Z M1627.75,34.4375 C1634.1625,32.0625 1638.9125,26.125 1638.9125,19 C1638.9125,10.2125 1631.7875,3.0875 1623,3.0875 C1614.2125,3.0875 1607.0875,10.2125 1607.0875,19 C1607.0875,26.125 1611.8375,32.3 1618.4875,34.4375 L1618.4875,31.35 C1618.4875,29.45 1619.2,28.5 1619.9125,28.025 C1615.875,27.55 1611.3625,26.125 1611.3625,19 C1611.3625,17.1 1612.075,15.4375 1613.2625,14.0125 C1613.025,13.5375 1612.55,11.6375 1613.5,9.2625 C1613.5,9.2625 1614.925,8.7875 1618.4875,11.1625 C1619.9125,10.6875 1621.575,10.45 1623,10.45 C1624.6625,10.45 1626.0875,10.6875 1627.5125,11.1625 C1631.075,8.7875 1632.5,9.2625 1632.5,9.2625 C1633.45,11.875 1632.975,13.5375 1632.7375,14.0125 C1633.925,15.2 1634.6375,16.8625 1634.6375,19 C1634.6375,26.125 1630.125,27.55 1626.0875,28.025 C1626.8,28.5 1627.5125,29.45 1627.5125,31.35 L1627.5125,34.4375 L1627.75,34.4375 Z" id="light/btn-github"></path>
                </g>
            </g>
        </g>
    </g>
</svg>