<?xml version="1.0" encoding="UTF-8" standalone="no"?>
<svg width="29px" height="28px" viewBox="0 0 29 28" version="1.1" xmlns="http://www.w3.org/2000/svg" xmlns:xlink="http://www.w3.org/1999/xlink" xmlns:sketch="http://www.bohemiancoding.com/sketch/ns">
    <!-- Generator: Sketch 3.3.2 (12043) - http://www.bohemiancoding.com/sketch -->
    <title>light/icn-sort-desc</title>
    <desc>Created with Sketch.</desc>
    <defs></defs>
    <g id="rTail---assets" stroke="none" stroke-width="1" fill="none" fill-rule="evenodd" sketch:type="MSPage">
        <g id="webapp-assets@2x" sketch:type="MSArtboardGroup" transform="translate(-1598.000000, -830.000000)" fill="#FFFFFF">
            <g id="light" sketch:type="MSLayerGroup" transform="translate(100.000000, 83.000000)">
                <g id="assets" transform="translate(40.000000, 70.000000)" sketch:type="MSShapeGroup">
                    <g id="light/icn-sort-desc" transform="translate(1458.000000, 677.000000)">
                        <path d="M28.012,12.014 L14.012,12.014 C13.459,12.014 13.012,12.462 13.012,13.015 C13.012,13.567 13.459,14 14.012,14 L28.012,14.016 C28.565,14.016 29.012,13.567 29.012,13.015 C29.012,12.462 28.565,12.014 28.012,12.014 L28.012,12.014 Z M28.012,6.007 L14.012,6.007 C13.459,6.007 13.012,6.455 13.012,7.008 C13.012,7.561 13.459,8 14.012,8 L28.012,8 C28.565,8 29.012,7.561 29.012,7.008 C29.012,6.455 28.565,6.007 28.012,6.007 L28.012,6.007 Z M28.012,18.021 L20.012,18.021 C19.459,18.021 19.012,18.469 19.012,19.021 C19.012,19.574 19.459,20 20.012,20 L28.012,20 C28.565,20 29.012,19.574 29.012,19.021 C29.012,18.469 28.565,18.021 28.012,18.021 L28.012,18.021 Z M28.012,24.027 L16.012,24.027 C15.459,24.027 15.012,24.476 15.012,25.028 C15.012,25.581 15.459,26.029 16.012,26.029 L28.012,26 C28.565,26 29.012,25.581 29.012,25.028 C29.012,24.476 28.565,24.027 28.012,24.027 L28.012,24.027 Z M14.012,2.002 L28.012,2 C28.565,2 29.012,1.554 29.012,1.001 C29.012,0.448 28.565,0 28.012,0 L14.012,0 C13.459,0 13.012,0.448 13.012,1.001 C13.012,1.554 13.459,2.002 14.012,2.002 L14.012,2.002 Z M15.699,18.303 C15.307,17.909 14.671,17.909 14.28,18.303 L9.012,24.364 L9.012,0 L7.012,0 L7.012,24.4 L1.713,18.303 C1.322,17.909 0.686,17.909 0.294,18.303 C-0.098,18.697 -0.098,19.335 0.294,19.729 L7.236,27.717 C7.446,27.927 7.723,28.017 7.996,28.002 C8.27,28.017 8.547,27.927 8.757,27.717 L15.699,19.729 C16.091,19.335 16.091,18.697 15.699,18.303 L15.699,18.303 Z" id="Fill-196"></path>
                    </g>
                </g>
            </g>
        </g>
    </g>
</svg>