<?xml version="1.0" encoding="UTF-8" standalone="no"?>
<svg width="34px" height="34px" viewBox="0 0 34 34" version="1.1" xmlns="http://www.w3.org/2000/svg" xmlns:xlink="http://www.w3.org/1999/xlink" xmlns:sketch="http://www.bohemiancoding.com/sketch/ns">
    <!-- Generator: Sketch 3.3.2 (12043) - http://www.bohemiancoding.com/sketch -->
    <title>light/icn-search</title>
    <desc>Created with Sketch.</desc>
    <defs></defs>
    <g id="rTail---assets" stroke="none" stroke-width="1" fill="none" fill-rule="evenodd" sketch:type="MSPage">
        <g id="webapp-assets@2x" sketch:type="MSArtboardGroup" transform="translate(-139.000000, -271.000000)" stroke="#90979A" fill="#90979A">
            <g id="light" sketch:type="MSLayerGroup" transform="translate(100.000000, 83.000000)">
                <g id="assets" transform="translate(40.000000, 70.000000)" sketch:type="MSShapeGroup">
                    <path d="M13.46,143.45 C7.17,143.45 2.071,138.44 2.071,132.25 C2.071,126.06 7.17,121.04 13.46,121.04 C19.75,121.04 24.85,126.06 24.85,132.25 C24.85,138.44 19.75,143.45 13.46,143.45 L13.46,143.45 Z M31.688,149.25 L23.429,141.12 C25.591,138.77 26.92,135.67 26.92,132.25 C26.92,124.93 20.894,119 13.46,119 C6.026,119 0,124.93 0,132.25 C0,139.56 6.026,145.49 13.46,145.49 C16.672,145.49 19.618,144.38 21.932,142.53 L30.224,150.69 C30.629,151.09 31.284,151.09 31.688,150.69 C32.093,150.3 32.093,149.65 31.688,149.25 L31.688,149.25 Z" id="light/icn-search"></path>
                </g>
            </g>
        </g>
    </g>
</svg>