<?xml version="1.0" encoding="UTF-8" standalone="no"?>
<svg width="96px" height="128px" viewBox="0 0 96 128" version="1.1" xmlns="http://www.w3.org/2000/svg" xmlns:xlink="http://www.w3.org/1999/xlink" xmlns:sketch="http://www.bohemiancoding.com/sketch/ns">
    <!-- Generator: Sketch 3.3.2 (12043) - http://www.bohemiancoding.com/sketch -->
    <title>light/logo-lukibear</title>
    <desc>Created with Sketch.</desc>
    <defs>
        <linearGradient x1="50.011073%" y1="0.0213804714%" x2="50.011073%" y2="99.9846801%" id="linearGradient-1">
            <stop stop-color="#33B4FF" offset="30%"></stop>
            <stop stop-color="#001C82" offset="100%"></stop>
        </linearGradient>
    </defs>
    <g id="rTail---assets" stroke="none" stroke-width="1" fill="none" fill-rule="evenodd" sketch:type="MSPage">
        <g id="webapp-assets@2x" sketch:type="MSArtboardGroup" transform="translate(-1306.000000, -748.000000)">
            <g id="light" sketch:type="MSLayerGroup" transform="translate(100.000000, 83.000000)">
                <g id="assets" transform="translate(40.000000, 70.000000)" sketch:type="MSShapeGroup">
                    <g id="light/logo-lukibear" transform="translate(1166.000000, 595.000000)">
                        <g id="bear">
                            <path d="M6.00000002,0.7875 L7.39130435,4.73278846 L12,5.40432692 L8.43478264,7.67076922 L9.56521739,11.7 L6.00000002,9.26567308 L2.34782609,11.7 L3.56521739,7.67076922 L0,5.40432692 L4.52173913,4.73278846 L6.00000002,0.7875 L6.00000002,0.7875 Z" id="star" fill="#FF931E"></path>
                            <path d="M89.0127302,98.7568922 L73.3347865,98.7568922 L62.693281,73.3886987 L49.7772549,98.7568922 L23.945203,98.7568922 L26.2197232,81.1942966 L33.6119142,61.7616101 L29.9564352,58.102736 L19.7210938,65.5017922 L22.9704086,80.7064469 L12.8163001,89.4877447 L6.39890355,84.446629 L1.28123287,62.2494598 L11.029177,49.3214381 L25.732326,20.700912 L43.2786255,14.6840968 L56.2758843,9.07382324 L57.1694457,4.5205577 L61.7997192,2.16261663 L65.4551982,5.90279901 L69.1106773,5.90279901 L72.8473893,3.13831638 L76.5028684,6.79719045 L77.6401284,11.4317643 L95.9175236,23.4653946 L91.2872501,30.3766012 L71.953828,31.7588425 L68.7045131,33.1410838 L76.0154712,46.2317222 L85.7634153,55.744795 L83.4888948,59.4849771 L89.0127302,98.7568922 L89.0127302,98.7568922 Z" id="gradient" fill="url(#linearGradient-1)"></path>
                            <g id="polygons" transform="translate(1.200000, 2.000000)">
                                <path d="M39.8041052,50.9803122 L28.7564352,56.102736 L18.5210938,63.5017922 L16.3278064,59.4363764 L27.2942436,33.011175 L39.8041052,50.9803122 L39.8041052,50.9803122 Z" id="Shape" opacity="0.5" fill="#000000"></path>
                                <path d="M72.1347865,96.7568922 L61.493281,71.3886987 L65.6361573,63.5017922 L82.2888948,57.4849771 L87.8127302,96.7568922 L72.1347865,96.7568922 L72.1347865,96.7568922 Z" id="Shape" opacity="0.5" fill="#000000"></path>
                                <path d="M28.7564352,56.102736 L39.8041052,50.9803122 L27.2942436,33.011175 L28.7564352,56.102736 L28.7564352,56.102736 Z" id="Shape" opacity="0.2" fill="#000000"></path>
                                <path d="M65.6361573,63.5017922 L59.6249248,34.3934163 L67.5045131,31.1410838 L65.6361573,63.5017922 L65.6361573,63.5017922 Z" id="Shape" opacity="0.2" fill="#FFFFFF"></path>
                                <path d="M76.4401284,9.43176427 L67.9106773,3.90279901 L71.6473893,1.13831638 L75.3028684,4.79719045 L76.4401284,9.43176427 L76.4401284,9.43176427 Z" id="Shape" opacity="0.3" fill="#000000"></path>
                                <path d="M90.0872501,18.456987 L91.7119078,25.9373518 L94.7175236,21.4653946 L90.0872501,18.456987 L90.0872501,18.456987 Z" id="Shape" opacity="0.7" fill="#000000"></path>
                                <path d="M77.6586214,17.7252122 L71.1599921,16.8308207 L70.2664307,11.7083971 L77.6586214,17.7252122 L77.6586214,17.7252122 Z" id="Shape" opacity="0.7" fill="#000000"></path>
                                <path d="M18.5210938,63.5017922 L5.19890355,82.446629 L11.6163001,87.4877447 L21.7704086,78.7064469 L18.5210938,63.5017922 L18.5210938,63.5017922 Z" id="Shape" opacity="0.5" fill="#000000"></path>
                                <path d="M5.19890355,82.446629 L9.82917701,47.3214381 L0.0812328679,60.2494598 L5.19890355,82.446629 L5.19890355,82.446629 Z" id="Shape" opacity="0.3" fill="#000000"></path>
                                <path d="M16.3278064,59.4363764 L9.82917701,47.3214381 L27.2942436,33.011175 L16.3278064,59.4363764 L16.3278064,59.4363764 Z" id="Shape" opacity="0.3" fill="#000000"></path>
                                <path d="M64.2551982,3.90279901 L63.767801,13.7411048 L54.5884871,9.91961418 L64.2551982,3.90279901 L64.2551982,3.90279901 Z" id="Shape" opacity="0.3" fill="#000000"></path>
                                <path d="M63.9302671,24.7990354 L59.6249248,34.3934163 L53.2075285,29.7588425 L63.9302671,24.7990354 L63.9302671,24.7990354 Z" id="Shape" opacity="0.3" fill="#000000"></path>
                                <path d="M54.5884871,9.91961418 L60.5997192,0.162616625 L64.2551982,3.90279901 L54.5884871,9.91961418 L54.5884871,9.91961418 Z" id="Shape" opacity="0.1" fill="#FFFFFF"></path>
                                <path d="M67.9106773,3.90279901 L64.2551982,3.90279901 L70.2664307,11.7083971 L77.6586214,17.7252122 L90.0872501,18.456987 L67.9106773,3.90279901 L67.9106773,3.90279901 Z" id="Shape" opacity="0.3" fill="#FFFFFF"></path>
                                <path d="M70.753828,29.7588425 L59.6249248,34.3934163 L63.9302671,24.7990354 L70.753828,29.7588425 L70.753828,29.7588425 Z" id="Shape" opacity="0.2" fill="#000000"></path>
                                <path d="M27.2942436,33.011175 L39.8041052,50.9803122 L53.2075285,29.7588425 L27.2942436,33.011175 L27.2942436,33.011175 Z" id="Shape" opacity="0.2" fill="#000000"></path>
                                <path d="M74.8154712,44.2317222 L84.5634153,53.744795 L82.2888948,57.4849771 L74.8154712,44.2317222 L74.8154712,44.2317222 Z" id="Shape" opacity="0.8" fill="#000000"></path>
                                <path d="M61.493281,71.3886987 L72.1347865,96.7568922 L82.2888948,57.4849771 L65.6361573,63.5017922 L61.493281,71.3886987 L61.493281,71.3886987 Z" id="Shape" opacity="0.6" fill="#000000"></path>
                                <path d="M32.8993114,88.4634441 L65.6361573,63.5017922 L41.1850639,68.5429079 L32.8993114,88.4634441 L32.8993114,88.4634441 Z" id="Shape" opacity="0.2" fill="#000000"></path>
                                <path d="M41.1850639,68.5429079 L39.8041052,50.9803122 L53.2075285,29.7588425 L41.1850639,68.5429079 L41.1850639,68.5429079 Z" id="Shape" opacity="0.4" fill="#000000"></path>
                                <path d="M31.5183527,96.7568922 L32.8993114,88.4634441 L50.7705425,92.3662433 L48.5772549,96.7568922 L31.5183527,96.7568922 L31.5183527,96.7568922 Z" id="Shape" opacity="0.3" fill="#000000"></path>
                                <path d="M70.753828,29.7588425 L77.6586214,17.7252122 L71.1599921,16.8308207 L70.753828,29.7588425 L70.753828,29.7588425 Z" id="Shape" opacity="0.2" fill="#000000"></path>
                                <path d="M77.6586214,17.7252122 L90.0872501,28.3766012 L91.7119078,25.9373518 L90.0872501,18.456987 L77.6586214,17.7252122 L77.6586214,17.7252122 Z" id="Shape" opacity="0.2" fill="#000000"></path>
                                <path d="M90.0872501,28.3766012 L77.6586214,17.7252122 L70.753828,29.7588425 L90.0872501,28.3766012 L90.0872501,28.3766012 Z" id="Shape" opacity="0.3" fill="#000000"></path>
                                <path d="M63.9302671,24.7990354 L53.2075285,29.7588425 L57.3504048,20.0831533 L63.9302671,24.7990354 L63.9302671,24.7990354 Z" id="Shape" opacity="0.4" fill="#000000"></path>
                                <path d="M63.767801,13.7411048 L70.2664307,11.7083971 L64.2551982,3.90279901 L63.767801,13.7411048 L63.767801,13.7411048 Z" id="Shape" opacity="0.2" fill="#000000"></path>
                                <path d="M9.82917701,47.3214381 L24.532326,18.700912 L27.2942436,33.011175 L9.82917701,47.3214381 L9.82917701,47.3214381 Z" id="Shape" opacity="0.2" fill="#000000"></path>
                                <path d="M27.2942436,33.011175 L47.1962961,25.1242687 L42.0786255,12.6840968 L24.532326,18.700912 L27.2942436,33.011175 L27.2942436,33.011175 Z" id="Shape" opacity="0.1" fill="#000000"></path>
                                <path d="M5.19890355,82.446629 L9.82917701,47.3214381 L18.5210938,63.5017922 L5.19890355,82.446629 L5.19890355,82.446629 Z" id="Shape" opacity="0.1" fill="#000000"></path>
                                <path d="M65.6361573,63.5017922 L82.2888948,57.4849771 L66.4484856,48.7036794 L65.6361573,63.5017922 L65.6361573,63.5017922 Z" id="Shape" opacity="0.7" fill="#000000"></path>
                                <path d="M71.1599921,16.8308207 L57.3504048,20.0831533 L70.753828,29.7588425 L71.1599921,16.8308207 L71.1599921,16.8308207 Z" id="Shape" opacity="0.2" fill="#FFFFFF"></path>
                                <path d="M66.4484856,48.7036794 L82.2888948,57.4849771 L67.5045131,31.1410838 L66.4484856,48.7036794 L66.4484856,48.7036794 Z" id="Shape" opacity="0.5" fill="#000000"></path>
                                <path d="M27.2942436,33.011175 L53.2075285,29.7588425 L47.1962961,25.1242687 L27.2942436,33.011175 L27.2942436,33.011175 Z" id="Shape" opacity="0.5" fill="#000000"></path>
                                <path d="M28.7564352,56.102736 L39.8041052,50.9803122 L41.1850639,68.5429079 L28.7564352,56.102736 L28.7564352,56.102736 Z" id="Shape" opacity="0.8" fill="#000000"></path>
                                <path d="M55.9694457,2.5205577 L54.5884871,9.91961418 L60.5997192,0.162616625 L55.9694457,2.5205577 L55.9694457,2.5205577 Z" id="Shape" opacity="0.3" fill="#000000"></path>
                                <path d="M70.2664307,11.7083971 L63.767801,13.7411048 L71.1599921,16.8308207 L70.2664307,11.7083971 L70.2664307,11.7083971 Z" id="Shape" opacity="0.1" fill="#000000"></path>
                                <path d="M57.3504048,20.0831533 L47.1962961,25.1242687 L54.5884871,9.91961418 L57.3504048,20.0831533 L57.3504048,20.0831533 Z" id="Shape" opacity="0.4" fill="#000000"></path>
                                <path d="M42.0786255,12.6840968 L54.5884871,9.91961418 L55.0758843,7.07382324 L42.0786255,12.6840968 L42.0786255,12.6840968 Z" id="Shape" opacity="0.5" fill="#000000"></path>
                                <path d="M47.1962961,25.1242687 L53.2075285,29.7588425 L57.3504048,20.0831533 L47.1962961,25.1242687 L47.1962961,25.1242687 Z" id="Shape" opacity="0.3" fill="#000000"></path>
                                <path d="M47.1962961,25.1242687 L42.0786255,12.6840968 L54.5884871,9.91961418 L47.1962961,25.1242687 L47.1962961,25.1242687 Z" id="Shape" opacity="0.3" fill="#000000"></path>
                                <path d="M27.2942436,33.011175 L42.0786255,12.6840968 L47.1962961,25.1242687 L27.2942436,33.011175 L27.2942436,33.011175 Z" id="Shape" opacity="0.1" fill="#000000"></path>
                                <path d="M65.6361573,63.5017922 L72.1347865,96.7568922 L61.493281,71.3886987 L65.6361573,63.5017922 L65.6361573,63.5017922 Z" id="Shape" opacity="0.5" fill="#000000"></path>
                                <path d="M25.0197232,79.1942966 L32.8993114,88.4634441 L41.1850639,68.5429079 L25.0197232,79.1942966 L25.0197232,79.1942966 Z" id="Shape" opacity="0.85" fill="#000000"></path>
                                <path d="M32.4119142,59.7616101 L41.1850639,68.5429079 L25.0197232,79.1942966 L32.4119142,59.7616101 L32.4119142,59.7616101 Z" id="Shape" opacity="0.9" fill="#000000"></path>
                                <path d="M25.0197232,79.1942966 L32.8993114,88.4634441 L31.5183527,96.7568922 L22.745203,96.7568922 L25.0197232,79.1942966 L25.0197232,79.1942966 Z" id="Shape" opacity="0.9" fill="#000000"></path>
                            </g>
                        </g>
                        <path d="M2.52259887,109.923009 L2.88657986e-15,109.923009 L2.88657986e-15,127.745394 L2.52259887,127.745394 L2.52259887,109.923009 L2.52259887,109.923009 Z M17.7776556,127.745394 L17.7776556,113.843934 L15.2550568,113.843934 L15.2550568,121.456638 C15.2550568,123.900851 13.7878309,125.784932 11.0593056,125.734011 C8.09911302,125.68309 7.4555929,123.926312 7.4555929,121.380257 L7.4555929,113.843934 L4.93299403,113.843934 L4.93299403,121.380257 C4.93299403,125.326642 6.76059117,127.949079 10.9820832,127.949079 C12.7839395,127.949079 14.3541286,127.439868 15.3837608,125.937695 L15.3837608,127.745394 L17.7776556,127.745394 L17.7776556,127.745394 Z M23.0710209,109.923009 L20.5484221,109.923009 L20.5484221,127.745394 L23.0710209,127.745394 L23.0710209,123.544404 L24.8728773,121.634862 L29.5577038,127.745394 L32.4664147,127.745394 L32.4664147,127.51625 L26.494548,119.903545 L32.1060434,113.971236 L29.0686285,113.971236 L25.2075077,118.044924 L23.0710209,120.565519 L23.0710209,109.923009 L23.0710209,109.923009 Z M36.1638501,127.745394 L33.6412513,127.745394 L33.6412513,113.818473 L36.1638501,113.818473 L36.1638501,127.745394 L36.1638501,127.745394 Z M33.3323616,110.43222 C33.3323616,108.548139 36.4727398,108.497218 36.4727398,110.43222 C36.4727398,112.367222 33.3323616,112.367222 33.3323616,110.43222 L33.3323616,110.43222 L33.3323616,110.43222 Z M41.7403643,109.923009 L39.2177654,109.923009 L39.2177654,127.745394 L41.7403643,127.745394 L41.7403643,125.886774 C42.7442557,127.388947 44.6490752,127.949079 46.3737092,127.974539 C51.2387214,127.974539 53.5811347,124.588286 53.5811347,120.794664 C53.5811347,117.077424 51.1357582,113.742091 46.4251908,113.742091 C44.7005569,113.742091 42.9501821,114.124 41.7403643,115.753475 L41.7403643,109.923009 L41.7403643,109.923009 Z M41.7403643,120.845585 C41.7403643,117.535713 44.1085183,115.906238 46.4766724,115.931699 C49.5140875,115.98262 51.032795,118.375912 51.0585358,120.794664 C51.0842766,123.315259 49.4626059,125.835853 46.2707459,125.759471 C43.9798143,125.70855 41.7403643,124.079075 41.7403643,120.845585 L41.7403643,120.845585 L41.7403643,120.845585 Z M69.0678587,120.259992 C68.7847099,115.931699 65.3869236,113.767552 61.9376558,113.767552 C58.2567207,113.767552 54.7044896,116.135383 54.7044896,120.871046 C54.7044896,125.606708 58.3082023,128 61.8861742,128 C64.7434035,128 67.6006329,126.497827 68.6560059,123.493482 L66.0561846,123.493482 C65.2324788,125.046576 63.6365489,125.784932 61.911915,125.784932 C59.8269098,125.784932 57.2270885,124.155457 57.2270885,121.456638 L69.0163771,121.456638 C69.0935995,121.100191 69.1193403,120.667361 69.0678587,120.259992 L69.0678587,120.259992 L69.0678587,120.259992 Z M57.3300517,119.394334 C57.8448678,116.950121 59.9041322,115.957159 61.9376558,115.957159 C63.9454386,115.957159 65.9274805,116.92466 66.4165558,119.394334 L57.3300517,119.394334 L57.3300517,119.394334 Z M83.0616161,113.971236 L83.0873569,115.804396 C81.8517983,114.14946 79.7667931,113.742091 78.0421592,113.742091 C73.3315919,113.742091 70.6030666,117.077424 70.6030666,120.794664 C70.6030666,124.588286 73.2286287,127.974539 78.0936408,127.974539 C79.8182747,127.949079 82.0577247,127.388947 83.0616161,125.886774 L83.0616161,127.745394 L85.584215,127.745394 L85.584215,113.971236 L83.0616161,113.971236 L83.0616161,113.971236 Z M83.0616161,120.845585 C83.0616161,124.079075 80.4875356,125.70855 78.196604,125.759471 C75.0047442,125.835853 73.1256654,123.442561 73.1256654,120.794664 C73.1256654,118.095846 74.9532626,115.98262 77.9906776,115.931699 C80.3588316,115.906238 83.0616161,117.535713 83.0616161,120.845585 L83.0616161,120.845585 L83.0616161,120.845585 Z M87.9173873,113.996697 L87.9173873,127.745394 L90.4142453,127.745394 L90.4142453,120.285453 C90.4142453,117.306568 93.1427707,115.244264 96,116.084462 L96,113.894855 C93.7862908,113.385644 91.7527672,113.818473 90.4142453,115.677093 L90.4142453,113.996697 L87.9173873,113.996697 L87.9173873,113.996697 Z" id="lukibear" fill="#FFFFFF"></path>
                    </g>
                </g>
            </g>
        </g>
    </g>
</svg>