<?xml version="1.0" encoding="UTF-8" standalone="no"?>
<svg width="29px" height="28px" viewBox="0 0 29 28" version="1.1" xmlns="http://www.w3.org/2000/svg" xmlns:xlink="http://www.w3.org/1999/xlink" xmlns:sketch="http://www.bohemiancoding.com/sketch/ns">
    <!-- Generator: Sketch 3.3.2 (12043) - http://www.bohemiancoding.com/sketch -->
    <title>light/icn-sort-asc</title>
    <desc>Created with Sketch.</desc>
    <defs></defs>
    <g id="rTail---assets" stroke="none" stroke-width="1" fill="none" fill-rule="evenodd" sketch:type="MSPage">
        <g id="webapp-assets@2x" sketch:type="MSArtboardGroup" transform="translate(-1681.000000, -830.000000)" fill="#FFFFFF">
            <g id="light" sketch:type="MSLayerGroup" transform="translate(100.000000, 83.000000)">
                <g id="assets" transform="translate(40.000000, 70.000000)" sketch:type="MSShapeGroup">
                    <g id="light/icn-sort-asc" transform="translate(1541.000000, 677.000000)">
                        <path d="M28.012,13.9876017 L14.012,13.9876017 C13.459,13.9876017 13.012,14.4366017 13.012,14.9886017 C13.012,15.5416017 13.459,15.9896017 14.012,15.9896017 L28.012,15.9896017 C28.565,15.9896017 29.012,15.5416017 29.012,14.9886017 C29.012,14.4366017 28.565,13.9876017 28.012,13.9876017 L28.012,13.9876017 Z M28.012,7.98160172 L20.012,8.00360172 C19.459,8.00360172 19.012,8.42960172 19.012,8.98260172 C19.012,9.53560172 19.459,10.0036017 20.012,10.0036017 L28.012,9.98260172 C28.565,9.98260172 29.012,9.53560172 29.012,8.98260172 C29.012,8.42960172 28.565,7.98160172 28.012,7.98160172 L28.012,7.98160172 Z M28.012,19.9946017 L14.012,19.9946017 C13.459,19.9946017 13.012,20.4426017 13.012,20.9956017 C13.012,21.5486017 13.459,21.9966017 14.012,21.9966017 L28.012,21.9966017 C28.565,21.9966017 29.012,21.5486017 29.012,20.9956017 C29.012,20.4426017 28.565,19.9946017 28.012,19.9946017 L28.012,19.9946017 Z M16.012,4.00360172 L28.012,4.00360172 C28.565,4.00360172 29.012,3.52860172 29.012,2.97660172 C29.012,2.42260172 28.565,1.97460172 28.012,1.97460172 L16.012,1.97460172 C15.459,1.97460172 15.012,2.42260172 15.012,2.97660172 C15.012,3.52860172 15.459,4.00360172 16.012,4.00360172 L16.012,4.00360172 Z M15.699,9.70060172 C16.091,9.30760172 16.091,8.66960172 15.699,8.27460172 L8.757,0.286601718 C8.547,0.0766017178 8.27,-0.0133982822 7.996,0.0016017178 C7.723,-0.0133982822 7.446,0.0766017178 7.236,0.286601718 L0.294,8.27460172 C-0.098,8.66960172 -0.098,9.30760172 0.294,9.70060172 C0.686,10.0946017 1.322,10.0946017 1.713,9.70060172 L7.012,3.60460172 L7.012,28.0036017 L9.012,28.0036017 L9.012,3.63960172 L14.28,9.70060172 C14.671,10.0946017 15.307,10.0946017 15.699,9.70060172 L15.699,9.70060172 Z M28.012,26.0036017 L14.012,26.0036017 C13.459,26.0036017 13.012,26.4496017 13.012,27.0026017 C13.012,27.5556017 13.459,28.0036017 14.012,28.0036017 L28.012,28.0036017 C28.565,28.0036017 29.012,27.5556017 29.012,27.0026017 C29.012,26.4496017 28.565,26.0036017 28.012,26.0036017 L28.012,26.0036017 Z" id="Fill-197"></path>
                    </g>
                </g>
            </g>
        </g>
    </g>
</svg>