<?xml version="1.0" encoding="UTF-8" standalone="no"?>
<svg width="32px" height="32px" viewBox="0 0 32 32" version="1.1" xmlns="http://www.w3.org/2000/svg" xmlns:xlink="http://www.w3.org/1999/xlink" xmlns:sketch="http://www.bohemiancoding.com/sketch/ns">
    <!-- Generator: Sketch 3.3.2 (12043) - http://www.bohemiancoding.com/sketch -->
    <title>light/icn-theme-light</title>
    <desc>Created with Sketch.</desc>
    <defs></defs>
    <g id="rTail---assets" stroke="none" stroke-width="1" fill="none" fill-rule="evenodd" sketch:type="MSPage">
        <g id="webapp-assets@2x" sketch:type="MSArtboardGroup" transform="translate(-1683.000000, -972.000000)" fill="#FFFFFF">
            <g id="light" sketch:type="MSLayerGroup" transform="translate(100.000000, 83.000000)">
                <g id="assets" transform="translate(40.000000, 70.000000)" sketch:type="MSShapeGroup">
                    <g id="light/icn-theme-light" transform="translate(1543.000000, 819.000000)">
                        <path d="M15.9995789,5.02442105 C16.4644211,5.02442105 16.8416842,4.64715789 16.8416842,4.18231579 L16.8416842,0.88 C16.8416842,0.415157895 16.4644211,0.0378947368 15.9995789,0.0378947368 C15.5347368,0.0378947368 15.1574737,0.415157895 15.1574737,0.88 L15.1574737,4.18231579 C15.1574737,4.64715789 15.5347368,5.02442105 15.9995789,5.02442105 L15.9995789,5.02442105 Z" id="Shape"></path>
                        <path d="M15.9995789,26.9781053 C15.5347368,26.9781053 15.1574737,27.3553684 15.1574737,27.8202105 L15.1574737,31.12 C15.1574737,31.5848421 15.5347368,31.9621053 15.9995789,31.9621053 C16.4644211,31.9621053 16.8416842,31.5848421 16.8416842,31.12 L16.8416842,27.8202105 C16.8416842,27.3553684 16.4648421,26.9781053 15.9995789,26.9781053 L15.9995789,26.9781053 Z" id="Shape"></path>
                        <path d="M7.04715789,8.23831579 C7.21136842,8.40294737 7.42694737,8.48505263 7.64252632,8.48505263 C7.85810526,8.48505263 8.07326316,8.40294737 8.23789474,8.23831579 C8.56673684,7.90947368 8.56673684,7.37642105 8.23789474,7.04757895 L5.904,4.71326316 C5.57557895,4.38442105 5.04210526,4.38442105 4.71326316,4.71326316 C4.38442105,5.04210526 4.38442105,5.57515789 4.71326316,5.904 L7.04715789,8.23831579 L7.04715789,8.23831579 Z" id="Shape"></path>
                        <path d="M24.9528421,23.7621053 C24.624,23.4332632 24.0905263,23.4336842 23.7616842,23.7616842 C23.4328421,24.0905263 23.4328421,24.6235789 23.7612632,24.9528421 L26.0955789,27.2892632 C26.2602105,27.4538947 26.4757895,27.536 26.6913684,27.536 C26.9069474,27.536 27.1221053,27.4538947 27.2867368,27.2896842 C27.6155789,26.9608421 27.6155789,26.4277895 27.2871579,26.0985263 L24.9528421,23.7621053 L24.9528421,23.7621053 Z" id="Shape"></path>
                        <path d="M5.02315789,16.0004211 C5.02315789,15.5355789 4.64589474,15.1583158 4.18105263,15.1583158 L0.88,15.1583158 C0.415157895,15.1583158 0.0378947368,15.5355789 0.0378947368,16.0004211 C0.0378947368,16.4652632 0.415157895,16.8425263 0.88,16.8425263 L4.18105263,16.8425263 C4.64589474,16.8425263 5.02315789,16.4652632 5.02315789,16.0004211 L5.02315789,16.0004211 Z" id="Shape"></path>
                        <path d="M31.12,15.1583158 L27.8189474,15.1583158 C27.3541053,15.1583158 26.9768421,15.5355789 26.9768421,16.0004211 C26.9768421,16.4652632 27.3541053,16.8425263 27.8189474,16.8425263 L31.12,16.8425263 C31.5848421,16.8425263 31.9621053,16.4652632 31.9621053,16.0004211 C31.9621053,15.5355789 31.5852632,15.1583158 31.12,15.1583158 L31.12,15.1583158 Z" id="Shape"></path>
                        <path d="M7.04673684,23.7621053 L4.71242105,26.0985263 C4.384,26.4277895 4.384,26.9608421 4.71284211,27.2896842 C4.87747368,27.4538947 5.09263158,27.536 5.30821053,27.536 C5.52378947,27.536 5.73936842,27.4538947 5.904,27.2892632 L8.23831579,24.9528421 C8.56673684,24.6235789 8.56673684,24.0905263 8.23789474,23.7616842 C7.90863158,23.4328421 7.37557895,23.4332632 7.04673684,23.7621053 L7.04673684,23.7621053 Z" id="Shape"></path>
                        <path d="M24.3570526,8.48505263 C24.5726316,8.48505263 24.7877895,8.40294737 24.9524211,8.23831579 L27.2867368,5.904 C27.6155789,5.57515789 27.6155789,5.04210526 27.2867368,4.71326316 C26.9578947,4.38442105 26.4248421,4.38442105 26.096,4.71326316 L23.7616842,7.04757895 C23.4328421,7.37642105 23.4328421,7.90947368 23.7616842,8.23831579 C23.9258947,8.40294737 24.1414737,8.48505263 24.3570526,8.48505263 L24.3570526,8.48505263 Z" id="Shape"></path>
                        <path d="M16,6.58736842 C10.8088421,6.58736842 6.58568421,10.8101053 6.58568421,16.0004211 C6.58568421,21.1915789 10.8088421,25.4147368 16,25.4147368 C21.1911579,25.4147368 25.4143158,21.1915789 25.4143158,16.0004211 C25.4143158,10.8101053 21.1911579,6.58736842 16,6.58736842 L16,6.58736842 Z M16,23.7305263 C11.7372632,23.7305263 8.26989474,20.2627368 8.26989474,16.0004211 C8.26989474,11.7385263 11.7376842,8.27157895 16,8.27157895 C20.2623158,8.27157895 23.7301053,11.7389474 23.7301053,16.0004211 C23.7301053,20.2627368 20.2623158,23.7305263 16,23.7305263 L16,23.7305263 Z" id="Shape"></path>
                    </g>
                </g>
            </g>
        </g>
    </g>
</svg>