<?xml version="1.0" encoding="UTF-8" standalone="no"?>
<svg width="106px" height="25px" viewBox="0 0 106 25" version="1.1" xmlns="http://www.w3.org/2000/svg" xmlns:xlink="http://www.w3.org/1999/xlink" xmlns:sketch="http://www.bohemiancoding.com/sketch/ns">
    <!-- Generator: Sketch 3.3.2 (12043) - http://www.bohemiancoding.com/sketch -->
    <title>common/logo-rtail</title>
    <desc>Created with Sketch.</desc>
    <defs></defs>
    <g id="rTail---assets" stroke="none" stroke-width="1" fill="none" fill-rule="evenodd" sketch:type="MSPage">
        <g id="webapp-assets@2x" sketch:type="MSArtboardGroup" transform="translate(-140.000000, -157.000000)" fill="#FFFFFF">
            <g id="light" sketch:type="MSLayerGroup" transform="translate(100.000000, 83.000000)">
                <g id="assets" transform="translate(40.000000, 70.000000)" sketch:type="MSShapeGroup">
                    <g id="common/logo-rtail" transform="translate(0.000000, 4.000000)">
                        <g id="rTail" transform="translate(52.000000, 0.000000)">
                            <path d="M0.08,6.496 L2.32,6.496 L2.32,9.024 L2.384,9.024 C2.64000128,8.40533024 2.9546648,7.9093352 3.328,7.536 C3.7013352,7.1626648 4.1013312,6.8693344 4.528,6.656 C4.9546688,6.4426656 5.4079976,6.29866704 5.888,6.224 C6.3680024,6.14933296 6.84266432,6.09066688 7.312,6.048 L7.312,8.416 C6.52266272,8.48000032 5.80266992,8.65599856 5.152,8.944 C4.50133008,9.23200144 3.9626688,9.63199744 3.536,10.144 C3.15199808,10.6346691 2.8533344,11.183997 2.64,11.792 C2.4266656,12.400003 2.32,13.0559965 2.32,13.76 L2.32,24 L0.08,24 L0.08,6.496 Z M13.264,2.464 L7.824,2.464 L7.824,0.32 L21.04,0.32 L21.04,2.464 L15.632,2.464 L15.632,24 L13.264,24 L13.264,2.464 Z M24.848,15.296 C24.848,16.2773382 25.018665,17.1999957 25.36,18.064 C25.701335,18.9280043 26.1866635,19.6799968 26.816,20.32 C27.4453365,20.9600032 28.2026622,21.4666648 29.088,21.84 C29.9733378,22.2133352 30.949328,22.4 32.016,22.4 C32.9546714,22.4 33.8506624,22.2186685 34.704,21.856 C35.5573376,21.4933315 36.3039968,20.9973365 36.944,20.368 C37.5840032,19.7386635 38.0906648,18.986671 38.464,18.112 C38.8373352,17.237329 39.024,16.2880051 39.024,15.264 C39.024,14.3039952 38.8480018,13.386671 38.496,12.512 C38.1439982,11.637329 37.6533365,10.8746699 37.024,10.224 C36.3946635,9.57333008 35.6533376,9.05066864 34.8,8.656 C33.9466624,8.26133136 33.0186717,8.064 32.016,8.064 C31.0559952,8.064 30.1440043,8.23466496 29.28,8.576 C28.4159957,8.91733504 27.6533366,9.39733024 26.992,10.016 C26.3306634,10.6346698 25.8080019,11.3919955 25.424,12.288 C25.0399981,13.1840045 24.848,14.1866611 24.848,15.296 L24.848,15.296 Z M41.136,24 L38.896,24 L38.896,20.928 L38.832,20.928 C38.3413309,21.653337 37.7973363,22.2399978 37.2,22.688 C36.6026637,23.1360022 35.9946698,23.4879987 35.376,23.744 C34.7573302,24.0000013 34.1546696,24.1759995 33.568,24.272 C32.9813304,24.3680005 32.4640022,24.416 32.016,24.416 C30.6293264,24.416 29.3600058,24.1706691 28.208,23.68 C27.0559942,23.1893309 26.0640042,22.5280042 25.232,21.696 C24.3999958,20.8639958 23.754669,19.8880056 23.296,18.768 C22.837331,17.6479944 22.608,16.458673 22.608,15.2 C22.608,14.0266608 22.8319978,12.8906722 23.28,11.792 C23.7280022,10.6933278 24.3573293,9.7173376 25.168,8.864 C25.9786707,8.0106624 26.9653275,7.32800256 28.128,6.816 C29.2906725,6.30399744 30.5866595,6.048 32.016,6.048 C32.4853357,6.048 33.0186637,6.09599952 33.616,6.192 C34.2133363,6.28800048 34.8213302,6.46399872 35.44,6.72 C36.0586698,6.97600128 36.6613304,7.33333104 37.248,7.792 C37.8346696,8.25066896 38.3626643,8.84266304 38.832,9.568 L38.896,9.568 L38.896,6.496 L41.136,6.496 L41.136,24 Z M45.2,0.32 L47.44,0.32 L47.44,4.352 L45.2,4.352 L45.2,0.32 Z M45.2,6.496 L47.44,6.496 L47.44,24 L45.2,24 L45.2,6.496 Z M51.6,0.32 L53.84,0.32 L53.84,24 L51.6,24 L51.6,0.32 Z"></path>
                        </g>
                        <g id="lines" transform="translate(0.000000, 1.000000)">
                            <rect id="Rectangle-6" x="0" y="0" width="20" height="2"></rect>
                            <rect id="Rectangle-7" x="0" y="7" width="30" height="2"></rect>
                            <rect id="Rectangle-8" x="0" y="14" width="24" height="2"></rect>
                            <rect id="Rectangle-9" x="0" y="21" width="13" height="2"></rect>
                        </g>
                    </g>
                </g>
            </g>
        </g>
    </g>
</svg>