<?xml version="1.0" encoding="UTF-8" standalone="no"?>
<svg width="34px" height="34px" viewBox="0 0 34 34" version="1.1" xmlns="http://www.w3.org/2000/svg" xmlns:xlink="http://www.w3.org/1999/xlink" xmlns:sketch="http://www.bohemiancoding.com/sketch/ns">
    <!-- Generator: Sketch 3.3.2 (12043) - http://www.bohemiancoding.com/sketch -->
    <title>dark/icn-search</title>
    <desc>Created with Sketch.</desc>
    <defs></defs>
    <g id="rTail---assets" stroke="none" stroke-width="1" fill="none" fill-rule="evenodd" sketch:type="MSPage">
        <g id="webapp-assets@2x" sketch:type="MSArtboardGroup" transform="translate(-139.000000, -1431.000000)" stroke="#A6A6A6" fill="#A6A6A6">
            <g id="dark" sketch:type="MSLayerGroup" transform="translate(100.000000, 1243.000000)">
                <g id="assets" transform="translate(40.000000, 71.000000)" sketch:type="MSShapeGroup">
                    <path d="M13.46,142.45 C7.17,142.45 2.071,137.44 2.071,131.25 C2.071,125.06 7.17,120.04 13.46,120.04 C19.75,120.04 24.85,125.06 24.85,131.25 C24.85,137.44 19.75,142.45 13.46,142.45 L13.46,142.45 Z M31.688,148.25 L23.429,140.12 C25.591,137.77 26.92,134.67 26.92,131.25 C26.92,123.93 20.894,118 13.46,118 C6.026,118 0,123.93 0,131.25 C0,138.56 6.026,144.49 13.46,144.49 C16.672,144.49 19.618,143.38 21.932,141.53 L30.224,149.69 C30.629,150.09 31.284,150.09 31.688,149.69 C32.093,149.3 32.093,148.65 31.688,148.25 L31.688,148.25 Z" id="dark/icn-search"></path>
                </g>
            </g>
        </g>
    </g>
</svg>