<?xml version="1.0" encoding="UTF-8" standalone="no"?>
<svg width="38px" height="38px" viewBox="0 0 38 38" version="1.1" xmlns="http://www.w3.org/2000/svg" xmlns:xlink="http://www.w3.org/1999/xlink" xmlns:sketch="http://www.bohemiancoding.com/sketch/ns">
    <!-- Generator: Sketch 3.3.2 (12043) - http://www.bohemiancoding.com/sketch -->
    <title>dark/btn-settings</title>
    <desc>Created with Sketch.</desc>
    <defs></defs>
    <g id="rTail---assets" stroke="none" stroke-width="1" fill="none" fill-rule="evenodd" sketch:type="MSPage">
        <g id="webapp-assets@2x" sketch:type="MSArtboardGroup" transform="translate(-1822.000000, -1314.000000)" fill="#999999">
            <g id="dark" sketch:type="MSLayerGroup" transform="translate(100.000000, 1243.000000)">
                <g id="assets" transform="translate(40.000000, 71.000000)" sketch:type="MSShapeGroup">
                    <path d="M1720,22.1527742 L1720,15.8478387 L1716.36794,15.1950968 C1715.98303,13.6328065 1715.36706,12.166129 1714.55681,10.8244839 L1716.66397,7.79429032 L1712.20632,3.33664516 L1709.17613,5.44380645 C1707.83387,4.63354839 1706.36719,4.01819355 1704.8049,3.63267742 L1704.15155,0 L1697.84661,0 L1697.19387,3.63206452 C1695.63281,4.01758065 1694.1649,4.63293548 1692.8251,5.44319355 L1689.79368,3.33603226 L1685.33603,7.79367742 L1687.44197,10.823871 C1686.63232,12.1649032 1686.01697,13.6321935 1685.63145,15.1944839 L1682,15.8478387 L1682,22.1521613 L1685.63145,22.8055161 C1686.01697,24.3671935 1686.63232,25.8344839 1687.44197,27.1755161 L1685.33603,30.2057097 L1689.79368,34.6633548 L1692.8251,32.5561935 C1694.1649,33.3670645 1695.63281,33.9824194 1697.19387,34.3673226 L1697.84661,38 L1704.15155,38 L1704.80429,34.3685484 C1706.36658,33.9836452 1707.83326,33.3682903 1709.17552,32.5574194 L1712.20571,34.6645806 L1716.66335,30.2069355 L1714.55619,27.1767419 C1715.36645,25.8357097 1715.98242,24.3684194 1716.36732,22.8067419 L1720,22.1527742 L1720,22.1527742 Z M1711.33968,19 C1711.33968,24.7104194 1706.71042,29.3409032 1701.00061,29.3409032 C1695.29019,29.3409032 1690.65971,24.7104194 1690.65971,19 C1690.65971,13.2895806 1695.29019,8.66032258 1701,8.66032258 C1706.70981,8.66032258 1711.33968,13.2895806 1711.33968,19 L1711.33968,19 Z" id="dark/btn-settings"></path>
                </g>
            </g>
        </g>
    </g>
</svg>