<?xml version="1.0" encoding="UTF-8" standalone="no"?>
<svg width="36px" height="29px" viewBox="0 0 36 29" version="1.1" xmlns="http://www.w3.org/2000/svg" xmlns:xlink="http://www.w3.org/1999/xlink" xmlns:sketch="http://www.bohemiancoding.com/sketch/ns">
    <!-- Generator: Sketch 3.3.2 (12043) - http://www.bohemiancoding.com/sketch -->
    <title>dark/icn-font-increase</title>
    <desc>Created with Sketch.</desc>
    <defs></defs>
    <g id="rTail---assets" stroke="none" stroke-width="1" fill="none" fill-rule="evenodd" sketch:type="MSPage">
        <g id="webapp-assets@2x" sketch:type="MSArtboardGroup" transform="translate(-1764.000000, -1541.000000)" stroke="#6B7780" fill="#6B7780">
            <g id="dark" sketch:type="MSLayerGroup" transform="translate(100.000000, 1243.000000)">
                <g id="assets" transform="translate(40.000000, 71.000000)" sketch:type="MSShapeGroup">
                    <g id="dark/icn-font-increase" transform="translate(1625.000000, 228.000000)">
                        <path d="M29.28,4.73053892 L34,4.73053892 L34,5.28942116 L29.28,5.28942116 L29.28,10 L28.72,10 L28.72,5.28942116 L24,5.28942116 L24,4.73053892 L28.72,4.73053892 L28.72,0 L29.28,0 L29.28,4.73053892 Z" id="+"></path>
                        <path d="M5.772,16.835 L19.129,16.835 L12.432,1.036 L5.772,16.835 Z M1.184,27.38 L0,27.38 L11.729,0 L13.172,0 L24.901,27.38 L23.717,27.38 L19.61,17.834 L5.291,17.834 L1.184,27.38 Z" id="A-2"></path>
                    </g>
                </g>
            </g>
        </g>
    </g>
</svg>