<?xml version="1.0" encoding="UTF-8" standalone="no"?>
<svg width="116px" height="113px" viewBox="0 0 116 113" version="1.1" xmlns="http://www.w3.org/2000/svg" xmlns:xlink="http://www.w3.org/1999/xlink" xmlns:sketch="http://www.bohemiancoding.com/sketch/ns">
    <!-- Generator: Sketch 3.4.3 (16044) - http://www.bohemiancoding.com/sketch -->
    <title>icn-github</title>
    <desc>Created with Sketch.</desc>
    <defs></defs>
    <g id="onepage" stroke="none" stroke-width="1" fill="none" fill-rule="evenodd" sketch:type="MSPage">
        <g id="assets" sketch:type="MSArtboardGroup" transform="translate(-1296.000000, -5072.000000)" fill="#FFFFFF">
            <g id="icn/icn-github" sketch:type="MSLayerGroup" transform="translate(1296.000000, 5072.000000)">
                <path d="M58.0004802,0 C25.9718982,0 0,25.9357307 0,57.9304226 C0,83.5256006 16.6189029,105.240396 39.6642683,112.900435 C42.5629476,113.436685 43.6271414,111.643747 43.6271414,110.113658 C43.6271414,108.732261 43.5733554,104.168854 43.5483834,99.3282079 C27.4125937,102.832544 24.0077499,92.4931701 24.0077499,92.4931701 C21.3693562,85.7972314 17.567841,84.016764 17.567841,84.016764 C12.3054606,80.4212943 17.9645125,80.4951607 17.9645125,80.4951607 C23.7887642,80.903824 26.8555247,86.4649067 26.8555247,86.4649067 C32.0285821,95.321197 40.423995,92.7608158 43.7337528,91.2806105 C44.2543242,87.5364487 45.7574498,84.9808641 47.4161706,83.5342343 C34.5334713,82.0693778 20.9909336,77.102104 20.9909336,54.9047792 C20.9909336,48.580091 23.2566674,43.4123227 26.9669385,39.355428 C26.3647278,37.8963273 24.3794494,32.004285 27.5288098,24.024798 C27.5288098,24.024798 32.3993211,22.4678484 43.4830718,29.962887 C48.1096253,28.6793389 53.0713807,28.0356462 58.0004802,28.0135822 C62.9295798,28.0356462 67.895177,28.6793389 72.5303747,29.962887 C83.6006789,22.4678484 88.464467,24.024798 88.464467,24.024798 C91.6215111,32.004285 89.6352722,37.8963273 89.0330615,39.355428 C92.7519768,43.4123227 95.0023432,48.580091 95.0023432,54.9047792 C95.0023432,77.1548657 81.4338729,82.0540289 68.5185179,83.4881877 C70.5988822,85.2859226 72.4525771,88.8113631 72.4525771,94.2160793 C72.4525771,101.967252 72.3853446,108.205603 72.3853446,110.113658 C72.3853446,111.655259 73.4293687,113.461627 76.369348,112.89276 C99.4022273,105.224088 116,83.5169669 116,57.9304226 C116,25.9357307 90.0319437,0 58.0004802,0" id="icn-github" sketch:type="MSShapeGroup"></path>
            </g>
        </g>
    </g>
</svg>