<?xml version="1.0" encoding="UTF-8" standalone="no"?>
<svg width="117px" height="30px" viewBox="0 0 117 30" version="1.1" xmlns="http://www.w3.org/2000/svg" xmlns:xlink="http://www.w3.org/1999/xlink" xmlns:sketch="http://www.bohemiancoding.com/sketch/ns">
    <!-- Generator: Sketch 3.4.3 (16618) - http://www.bohemiancoding.com/sketch -->
    <title>logo-rtail</title>
    <desc>Created with Sketch.</desc>
    <defs></defs>
    <g id="Page-1" stroke="none" stroke-width="1" fill="none" fill-rule="evenodd" sketch:type="MSPage">
        <g id="logo-rtail" sketch:type="MSLayerGroup" fill="#FFFFFF">
            <path d="M62.7864623,11.0052635 L65.0892622,11.0052635 L65.0892622,13.6041377 L65.1550565,13.6041377 C65.418235,12.9681231 65.7417203,12.4582225 66.1255222,12.0744206 C66.5093241,11.6906187 66.9205343,11.3890646 67.359165,11.1697492 C67.7977957,10.9504338 68.2638339,10.8023982 68.7572935,10.7256378 C69.2507531,10.6488774 69.7387225,10.5885666 70.2212163,10.5447035 L70.2212163,12.979092 C69.4097494,13.0448866 68.6695712,13.2258191 68.0006593,13.5218948 C67.3317474,13.8179706 66.7779844,14.2291808 66.3393536,14.7555377 C65.9445859,15.259963 65.637549,15.8246916 65.4182336,16.4497405 C65.1989183,17.0747893 65.0892622,17.7491739 65.0892622,18.4729147 L65.0892622,29 L62.7864623,29 L62.7864623,11.0052635 Z M76.3400847,6.86022365 L70.7475706,6.86022365 L70.7475706,4.65611516 L84.3340901,4.65611516 L84.3340901,6.86022365 L78.7744732,6.86022365 L78.7744732,29 L76.3400847,29 L76.3400847,6.86022365 Z M86.5381986,20.0519775 C86.5381986,21.0608282 86.7136483,22.009353 87.0645529,22.8975802 C87.4154575,23.7858075 87.9143925,24.5588826 88.5613728,25.2168287 C89.2083532,25.8747748 89.9869111,26.395641 90.8970699,26.7794429 C91.8072287,27.1632448 92.8105815,27.3551429 93.9071583,27.3551429 C94.872146,27.3551429 95.7932567,27.1687276 96.6705182,26.7958915 C97.5477797,26.4230554 98.315372,25.9131548 98.9733181,25.2661744 C99.6312643,24.6191941 100.15213,23.846119 100.535932,22.9469259 C100.919734,22.0477329 101.111632,21.0717941 101.111632,20.0190803 C101.111632,19.0321611 100.9307,18.0891192 100.56883,17.1899261 C100.206959,16.2907331 99.7025414,15.5066924 99.055561,14.8377805 C98.4085806,14.1688686 97.6464712,13.631554 96.7692097,13.2258206 C95.8919482,12.8200871 94.9379406,12.6172234 93.9071583,12.6172234 C92.9202391,12.6172234 91.98268,12.7926731 91.0944527,13.1435777 C90.2062255,13.4944823 89.4221847,13.9879345 88.7423071,14.6239491 C88.0624294,15.2599637 87.5251148,16.0385216 87.1303471,16.9596461 C86.7355795,17.8807707 86.5381986,18.9115375 86.5381986,20.0519775 L86.5381986,20.0519775 Z M103.282844,29 L100.980044,29 L100.980044,25.8418744 L100.91425,25.8418744 C100.409824,26.5875467 99.8505783,27.1906549 99.2364953,27.6512172 C98.6224122,28.1117795 97.9973728,28.4736444 97.3613582,28.7368229 C96.7253436,29.0000013 96.105787,29.1809338 95.5026697,29.2796257 C94.8995524,29.3783176 94.3677206,29.4276628 93.9071583,29.4276628 C92.4816084,29.4276628 91.1767015,29.1754539 89.9923985,28.6710286 C88.8080954,28.1666032 87.7882943,27.4867358 86.9329643,26.6314058 C86.0776343,25.7760758 85.4142153,24.7727231 84.9426872,23.6213173 C84.4711592,22.4699116 84.2353987,21.2472467 84.2353987,19.953286 C84.2353987,18.7470515 84.4656764,17.5792146 84.9262387,16.4497405 C85.3868009,15.3202663 86.0337716,14.3169135 86.86717,13.439652 C87.7005684,12.5623905 88.7148868,11.8605918 89.9101556,11.3342349 C91.1054244,10.807878 92.4377453,10.5447035 93.9071583,10.5447035 C94.3896522,10.5447035 94.9379324,10.5940487 95.5520154,10.6927407 C96.1660985,10.7914326 96.7911379,10.972365 97.4271525,11.2355435 C98.0631671,11.4987219 98.6827237,11.8660697 99.285841,12.3375977 C99.8889583,12.8091258 100.431756,13.4177168 100.91425,14.1633891 L100.980044,14.1633891 L100.980044,11.0052635 L103.282844,11.0052635 L103.282844,29 Z M107.460781,4.65611516 L109.763581,4.65611516 L109.763581,8.80115501 L107.460781,8.80115501 L107.460781,4.65611516 Z M107.460781,11.0052635 L109.763581,11.0052635 L109.763581,29 L107.460781,29 L107.460781,11.0052635 Z M114.040209,4.65611516 L116.343009,4.65611516 L116.343009,29 L114.040209,29 L114.040209,4.65611516 Z" id="rTail" sketch:type="MSShapeGroup"></path>
            <rect id="Rectangle-6" sketch:type="MSShapeGroup" x="0" y="0.47368421" width="24.2592593" height="2.42105263"></rect>
            <rect id="Rectangle-7" sketch:type="MSShapeGroup" x="0" y="8.9473684" width="36.3888889" height="2.42105263"></rect>
            <rect id="Rectangle-8" sketch:type="MSShapeGroup" x="0" y="17.4210526" width="29.1111111" height="2.42105263"></rect>
            <rect id="Rectangle-9" sketch:type="MSShapeGroup" x="0" y="25.8947368" width="15.7685185" height="2.42105263"></rect>
        </g>
    </g>
</svg>