<?xml version="1.0" encoding="UTF-8" standalone="no"?>
<svg width="125px" height="36px" viewBox="0 0 125 36" version="1.1" xmlns="http://www.w3.org/2000/svg" xmlns:xlink="http://www.w3.org/1999/xlink" xmlns:sketch="http://www.bohemiancoding.com/sketch/ns">
    <!-- Generator: Sketch 3.4.3 (16044) - http://www.bohemiancoding.com/sketch -->
    <title>logo-nodejs</title>
    <desc>Created with Sketch.</desc>
    <defs></defs>
    <g id="onepage" stroke="none" stroke-width="1" fill="none" fill-rule="evenodd" sketch:type="MSPage">
        <g id="assets" sketch:type="MSArtboardGroup" transform="translate(-1474.000000, -5716.000000)" fill="#FFFFFF">
            <g id="logo/logo-nodejs" sketch:type="MSLayerGroup" transform="translate(1474.000000, 5716.000000)">
                <g id="logo-nodejs" transform="translate(0.000000, 0.000000)" sketch:type="MSShapeGroup">
                    <path d="M19.6264045,19.4096471 C19.6264045,19.0270588 19.426264,18.6755294 19.0976124,18.4856471 L10.3419944,13.4209412 C10.1938202,13.3334118 10.0273876,13.2875294 9.85955056,13.2804706 L9.76896067,13.2804706 C9.60182584,13.2875294 9.43609551,13.3334118 9.28581461,13.4209412 L0.529494382,18.4856471 C0.202949438,18.6755294 0,19.0270588 0,19.4096471 L0.0189606742,33.0487059 C0.0189606742,33.2385882 0.117275281,33.4150588 0.283005618,33.5082353 C0.445926966,33.6056471 0.646769663,33.6056471 0.808286517,33.5082353 L6.01264045,30.5131765 C6.34129213,30.3162353 6.54143258,29.9696471 6.54143258,29.5905882 L6.54143258,23.2185882 C6.54143258,22.8381176 6.74227528,22.4865882 7.06952247,22.2981176 L9.28581461,21.0155294 C9.4508427,20.9195294 9.63132022,20.8722353 9.81601124,20.8722353 C9.99578652,20.8722353 10.1811798,20.9195294 10.3419944,21.0155294 L12.556882,22.2981176 C12.8848315,22.4865882 13.0856742,22.8381176 13.0856742,23.2185882 L13.0856742,29.5905882 C13.0856742,29.9696471 13.2886236,30.3183529 13.6158708,30.5131765 L18.818118,33.5082353 C18.9810393,33.6056471 19.184691,33.6056471 19.3469101,33.5082353 C19.5077247,33.4150588 19.6095506,33.2385882 19.6095506,33.0487059 L19.6264045,19.4096471" id="Fill-1"></path>
                    <path d="M65.5695225,26.5115294 C65.5695225,26.6061176 65.5189607,26.6943529 65.4375,26.7416471 L62.4297753,28.4844706 C62.3483146,28.5310588 62.247191,28.5310588 62.1657303,28.4844706 L59.1580056,26.7416471 C59.0758427,26.6943529 59.0259831,26.6061176 59.0259831,26.5115294 L59.0259831,23.0209412 C59.0259831,22.9263529 59.0758427,22.8381176 59.1580056,22.7908235 L62.1650281,21.0444706 C62.247191,20.9971765 62.3483146,20.9971765 62.4297753,21.0444706 L65.4375,22.7908235 C65.5189607,22.8381176 65.5695225,22.9263529 65.5695225,23.0209412 L65.5695225,26.5115294 L65.5695225,26.5115294 Z M66.3820225,0.660705882 C66.2183989,0.568941176 66.0182584,0.571058824 65.8567416,0.666352941 C65.6952247,0.761647059 65.5955056,0.936 65.5955056,1.12447059 L65.5955056,14.6322353 C65.5955056,14.7649412 65.5252809,14.8877647 65.4108146,14.9541176 C65.2963483,15.0204706 65.1551966,15.0204706 65.0407303,14.9541176 L62.8476124,13.6842353 C62.5203652,13.4943529 62.1179775,13.4950588 61.7907303,13.6842353 L53.0308989,18.7658824 C52.7036517,18.9557647 52.5021067,19.3065882 52.5021067,19.6863529 L52.5021067,29.8510588 C52.5021067,30.2315294 52.7036517,30.5823529 53.0308989,30.7722353 L61.7900281,35.8574118 C62.1172753,36.0472941 62.5203652,36.0472941 62.8483146,35.8574118 L71.6088483,30.7722353 C71.9360955,30.5823529 72.1376404,30.2315294 72.1376404,29.8510588 L72.1376404,4.51270588 C72.1376404,4.12729412 71.9297753,3.77223529 71.5948034,3.58447059 L66.3820225,0.660705882 L66.3820225,0.660705882 Z" id="Fill-3"></path>
                    <path d="M97.7212079,22.9291765 C98.0470506,22.7392941 98.247191,22.3891765 98.247191,22.0101176 L98.247191,19.5465882 C98.247191,19.1682353 98.0470506,18.8174118 97.7205056,18.6275294 L89.0175562,13.548 C88.6896067,13.3567059 88.2858146,13.356 87.9571629,13.5465882 L79.2008427,18.6282353 C78.8735955,18.8181176 78.6720506,19.1689412 78.6720506,19.5487059 L78.6720506,29.7105882 C78.6720506,30.0931765 78.8764045,30.4454118 79.2064607,30.6345882 L87.9087079,35.6188235 C88.2296348,35.8030588 88.6228933,35.8051765 88.945927,35.6244706 L94.2092697,32.6837647 C94.3764045,32.5905882 94.4803371,32.4141176 94.4810393,32.2228235 C94.4824438,32.0308235 94.380618,31.8536471 94.2155899,31.7583529 L85.4037921,26.6738824 C85.238764,26.5792941 85.1376404,26.4035294 85.1376404,26.2129412 L85.1376404,23.0287059 C85.1376404,22.8381176 85.238764,22.6623529 85.4023876,22.5677647 L88.1453652,20.9788235 C88.3082865,20.8835294 88.5098315,20.8835294 88.6734551,20.9788235 L91.4171348,22.5677647 C91.5807584,22.6623529 91.681882,22.8381176 91.681882,23.0287059 L91.681882,25.5345882 C91.681882,25.7244706 91.7830056,25.9002353 91.9466292,25.9948235 C92.1109551,26.0901176 92.3125,26.0894118 92.4761236,25.9941176 L97.7212079,22.9291765" id="Fill-5"></path>
                    <path d="M35.5547753,13.4929412 C35.8820225,13.3030588 36.2851124,13.3030588 36.6123596,13.4929412 L45.3707865,18.5738824 C45.6980337,18.7637647 45.8995787,19.1145882 45.8995787,19.4943529 L45.8995787,29.6632941 C45.8995787,30.0430588 45.6980337,30.3938824 45.3707865,30.5844706 L36.6123596,35.6689412 C36.2851124,35.8588235 35.8820225,35.8588235 35.554073,35.6689412 L26.7977528,30.5844706 C26.4705056,30.3945882 26.2689607,30.0430588 26.2689607,29.6632941 L26.2689607,19.4943529 C26.2689607,19.1145882 26.4705056,18.7637647 26.7984551,18.5738824 L35.5547753,13.4929412" id="Fill-7"></path>
                    <path d="M114.726826,35.8136471 C114.42486,35.8136471 114.125,35.7345882 113.860955,35.5807059 L111.10323,33.9409412 C110.691713,33.7094118 110.892556,33.6275294 111.02809,33.5795294 C111.577949,33.3882353 111.688904,33.3437647 112.275281,33.0098824 C112.336376,32.9752941 112.417135,32.988 112.480337,33.0254118 L114.598315,34.2896471 C114.675562,34.3327059 114.783708,34.3327059 114.854635,34.2896471 L123.113062,29.4981176 C123.190309,29.4543529 123.239466,29.3654118 123.239466,29.2736471 L123.239466,19.6927059 C123.239466,19.5995294 123.190309,19.512 123.111657,19.464 L114.856039,14.6767059 C114.779494,14.6322353 114.678371,14.6322353 114.601124,14.6767059 L106.347612,19.4654118 C106.267556,19.512 106.216994,19.6023529 106.216994,19.6927059 L106.216994,29.2736471 C106.216994,29.3654118 106.267556,29.4522353 106.34691,29.4952941 L108.609551,30.8089412 C109.837079,31.4265882 110.589185,30.6995294 110.589185,29.9696471 L110.589185,20.5108235 C110.589185,20.3767059 110.695927,20.2715294 110.828652,20.2715294 L111.876404,20.2715294 C112.007022,20.2715294 112.115169,20.3767059 112.115169,20.5108235 L112.115169,29.9696471 C112.115169,31.6164706 111.223315,32.5609412 109.669944,32.5609412 C109.192416,32.5609412 108.816713,32.5609412 107.767556,32.0414118 L105.601826,30.7877647 C105.066713,30.4771765 104.735955,29.8955294 104.735955,29.2736471 L104.735955,19.6927059 C104.735955,19.0708235 105.066713,18.4891765 105.601826,18.18 L113.860955,13.3828235 C114.383427,13.0856471 115.077949,13.0856471 115.596208,13.3828235 L123.854635,18.18 C124.389747,18.4905882 124.72191,19.0708235 124.72191,19.6927059 L124.72191,29.2736471 C124.72191,29.8955294 124.389747,30.4750588 123.854635,30.7877647 L115.596208,35.5807059 C115.332163,35.7345882 115.033006,35.8136471 114.726826,35.8136471" id="Fill-8"></path>
                    <path d="M117.27809,29.2136471 C113.663624,29.2136471 112.906601,27.5456471 112.906601,26.1472941 C112.906601,26.0145882 113.013343,25.908 113.145365,25.908 L114.213483,25.908 C114.332865,25.908 114.431882,25.9941176 114.450843,26.1112941 C114.611657,27.204 115.092697,27.7552941 117.27809,27.7552941 C119.017556,27.7552941 119.758427,27.36 119.758427,26.4317647 C119.758427,25.8974118 119.548455,25.5 116.844803,25.2338824 C114.584972,25.0094118 113.1875,24.5075294 113.1875,22.6905882 C113.1875,21.0155294 114.591994,20.016 116.946629,20.016 C119.592697,20.016 120.901685,20.9392941 121.067416,22.92 C121.073736,22.9877647 121.04986,23.0534118 121.004916,23.1042353 C120.95927,23.1522353 120.896067,23.1811765 120.830056,23.1811765 L119.757725,23.1811765 C119.64677,23.1811765 119.548455,23.1021176 119.525983,22.9934118 C119.268961,21.8435294 118.643258,21.4764706 116.946629,21.4764706 C115.047051,21.4764706 114.826545,22.1414118 114.826545,22.6397647 C114.826545,23.244 115.087079,23.4197647 117.651685,23.7607059 C120.189607,24.0981176 121.395365,24.5752941 121.395365,26.3682353 C121.395365,28.1774118 119.894663,29.2136471 117.27809,29.2136471" id="Fill-9"></path>
                    <path d="M88.3581461,22.4534118 C88.4213483,22.4167059 88.4985955,22.4167059 88.5610955,22.4534118 L90.2422753,23.4282353 C90.3047753,23.4649412 90.3433989,23.532 90.3433989,23.6047059 L90.3433989,25.5557647 C90.3433989,25.6291765 90.3047753,25.6962353 90.2422753,25.7329412 L88.5610955,26.7070588 C88.4985955,26.7437647 88.4213483,26.7437647 88.3581461,26.7070588 L86.679073,25.7329412 C86.6158708,25.6962353 86.5772472,25.6291765 86.5772472,25.5557647 L86.5772472,23.6047059 C86.5772472,23.532 86.6158708,23.4649412 86.679073,23.4282353 L88.3581461,22.4534118" id="Fill-12"></path>
                </g>
            </g>
        </g>
    </g>
</svg>